<svg width="88" height="95" viewBox="0 0 88 95" fill="none" xmlns="http://www.w3.org/2000/svg">
<path d="M86.7619 45.9613L44.3449 88.7348C42.6991 90.4114 40.7355 91.7439 38.569 92.6529C36.4025 93.5626 34.0764 94.0308 31.7267 94.0308C29.3771 94.0308 27.051 93.5626 24.8844 92.6529C22.7179 91.7439 20.7543 90.4114 19.1086 88.7348L6.4191 75.8313C3.09721 72.4572 1.23535 67.9125 1.23535 63.1776C1.23535 58.4428 3.09721 53.8978 6.4191 50.5238L51.6164 5.18399C52.9418 3.84762 54.5188 2.78693 56.2562 2.06307C57.9937 1.33923 59.8572 0.966553 61.7394 0.966553C63.6216 0.966553 65.4852 1.33923 67.2228 2.06307C68.96 2.78693 70.537 3.84762 71.8623 5.18399L76.9238 10.2455C78.2606 11.5709 79.3211 13.1479 80.0447 14.8853C80.769 16.6227 81.1413 18.4863 81.1413 20.3685C81.1413 22.2508 80.769 24.1143 80.0447 25.8518C79.3211 27.5892 78.2606 29.1661 76.9238 30.4916L36.8596 70.6984C36.1968 71.3671 35.4083 71.8974 34.5396 72.2588C33.6709 72.621 32.7391 72.8071 31.798 72.8071C30.8569 72.8071 29.9251 72.621 29.0564 72.2588C28.1877 71.8974 27.3992 71.3671 26.7365 70.6984L24.2413 68.1322C23.5732 67.4695 23.0428 66.681 22.6809 65.8123C22.319 64.9436 22.1327 64.0118 22.1327 63.0707C22.1327 62.1296 22.319 61.1978 22.6809 60.329C23.0428 59.4604 23.5732 58.6719 24.2413 58.0092L51.1174 31.347" stroke="black" stroke-linecap="round" stroke-linejoin="round"/>
</svg>
