<svg width="84" height="84" viewBox="0 0 84 84" fill="none" xmlns="http://www.w3.org/2000/svg">
<circle cx="42" cy="42" r="42" fill="#D9D9D9"/>
<path d="M26.6842 53.0131H56.2973C58.2049 53.0131 59.3716 51.976 59.3716 50.4204C59.3716 48.4573 57.5937 46.772 55.9269 45.1793C54.612 43.9014 54.3157 41.2345 54.075 38.7714C53.7786 31.9932 51.797 27.2151 47.0004 25.4927C46.2411 23.0481 44.2224 21.1591 41.4815 21.1591C38.7591 21.1591 36.7404 23.0481 35.9626 25.4927C31.1845 27.2151 29.1843 31.9932 28.9065 38.7714C28.6658 41.2345 28.3509 43.9014 27.0545 45.1793C25.3878 46.772 23.6099 48.4573 23.6099 50.4204C23.6099 51.976 24.7766 53.0131 26.6842 53.0131ZM41.4815 60.6433C44.778 60.6433 47.1671 58.2913 47.4078 55.6059H35.5737C35.8144 58.2913 38.2035 60.6433 41.4815 60.6433Z" fill="#1C1C1E"/>
</svg>
