<svg width="55" height="50" viewBox="0 0 55 50" fill="none" xmlns="http://www.w3.org/2000/svg">
<path d="M20.7555 3.62363C23.7052 -1.20788 31.2051 -1.20788 34.1549 3.62363C35.7386 6.21773 38.891 7.62676 42.0636 7.15862C47.9725 6.2867 52.6487 11.7291 50.4179 16.8819C49.2202 19.6486 49.9988 22.8146 52.3712 24.825C56.7899 28.5692 55.121 35.3557 49.3896 36.9498C46.3123 37.8056 44.1308 40.3446 43.9166 43.3196C43.5176 48.8605 36.7604 51.8808 31.8442 48.7156C29.2046 47.0162 25.7057 47.0162 23.0662 48.7156C18.15 51.8808 11.3928 48.8605 10.9938 43.3196C10.7795 40.3446 8.59801 37.8056 5.52075 36.9498C-0.21064 35.3557 -1.87953 28.5692 2.53912 24.825C4.91154 22.8146 5.69012 19.6486 4.49241 16.8819C2.26168 11.7291 6.9378 6.2867 12.8468 7.15862C16.0194 7.62676 19.1718 6.21773 20.7555 3.62363Z" fill="#A0D4CB"/>
</svg>
