<svg width="18" height="28" viewBox="0 0 18 28" fill="none" xmlns="http://www.w3.org/2000/svg">
<mask id="path-1-inside-1_2127_442" fill="white">
<path fill-rule="evenodd" clip-rule="evenodd" d="M1.07519 16.2471C0.505281 16.2471 0.0668945 15.8526 0.0668945 15.3046C0.0668945 15.0197 0.176491 14.7128 0.417604 14.4497L11.5746 0.530962C12.5171 -0.586923 14.0076 0.202171 13.4596 1.58309L9.84292 11.2934H16.6379C17.2078 11.2934 17.6681 11.6879 17.6681 12.2578C17.6681 12.5208 17.5366 12.8277 17.3174 13.0907L6.13856 27.0095C5.21794 28.1274 3.72743 27.3383 4.25349 25.9574L7.87018 16.2471H1.07519Z"/>
</mask>
<path fill-rule="evenodd" clip-rule="evenodd" d="M1.07519 16.2471C0.505281 16.2471 0.0668945 15.8526 0.0668945 15.3046C0.0668945 15.0197 0.176491 14.7128 0.417604 14.4497L11.5746 0.530962C12.5171 -0.586923 14.0076 0.202171 13.4596 1.58309L9.84292 11.2934H16.6379C17.2078 11.2934 17.6681 11.6879 17.6681 12.2578C17.6681 12.5208 17.5366 12.8277 17.3174 13.0907L6.13856 27.0095C5.21794 28.1274 3.72743 27.3383 4.25349 25.9574L7.87018 16.2471H1.07519Z" fill="#FFDE69"/>
<path d="M0.417604 14.4497L0.78618 14.7876L0.797376 14.7754L0.807739 14.7625L0.417604 14.4497ZM11.5746 0.530962L11.1922 0.208563L11.1844 0.21824L11.5746 0.530962ZM13.4596 1.58309L12.9948 1.39863L12.9911 1.40857L13.4596 1.58309ZM9.84292 11.2934L9.37437 11.1188L9.12314 11.7934H9.84292V11.2934ZM17.3174 13.0907L16.9333 12.7706L16.9276 12.7777L17.3174 13.0907ZM6.13856 27.0095L6.52455 27.3274L6.52839 27.3226L6.13856 27.0095ZM4.25349 25.9574L4.72075 26.1354L4.72205 26.1319L4.25349 25.9574ZM7.87018 16.2471L8.33874 16.4217L8.58997 15.7471H7.87018V16.2471ZM-0.433105 15.3046C-0.433105 16.1651 0.26696 16.7471 1.07519 16.7471V15.7471C0.743603 15.7471 0.566895 15.5401 0.566895 15.3046H-0.433105ZM0.0490287 14.1119C-0.27356 14.4638 -0.433105 14.8901 -0.433105 15.3046H0.566895C0.566895 15.1492 0.626541 14.9618 0.78618 14.7876L0.0490287 14.1119ZM11.1844 0.21824L0.0274699 14.137L0.807739 14.7625L11.9647 0.843684L11.1844 0.21824ZM13.9244 1.76751C14.2756 0.882429 13.9953 0.051835 13.3155 -0.318973C12.6524 -0.680624 11.7916 -0.502117 11.1923 0.208663L11.9568 0.853262C12.3001 0.446155 12.6557 0.460267 12.8366 0.558923C13.0007 0.648421 13.1916 0.902835 12.9949 1.39867L13.9244 1.76751ZM10.3115 11.4679L13.9282 1.75761L12.9911 1.40857L9.37437 11.1188L10.3115 11.4679ZM16.6379 10.7934H9.84292V11.7934H16.6379V10.7934ZM18.1681 12.2578C18.1681 11.3693 17.4395 10.7934 16.6379 10.7934V11.7934C16.9762 11.7934 17.1681 12.0065 17.1681 12.2578H18.1681ZM17.7015 13.4108C17.9699 13.0888 18.1681 12.6726 18.1681 12.2578H17.1681C17.1681 12.3691 17.1034 12.5666 16.9333 12.7707L17.7015 13.4108ZM6.52839 27.3226L17.7073 13.4038L16.9276 12.7777L5.74872 26.6964L6.52839 27.3226ZM3.78625 25.7794C3.44851 26.666 3.73906 27.4913 4.41409 27.8595C5.07671 28.2209 5.93469 28.0436 6.52452 27.3274L5.75259 26.6917C5.42181 27.0933 5.07423 27.0805 4.89295 26.9816C4.72409 26.8895 4.53241 26.6298 4.72074 26.1354L3.78625 25.7794ZM7.40163 16.0726L3.78494 25.7829L4.72205 26.1319L8.33874 16.4217L7.40163 16.0726ZM1.07519 16.7471H7.87018V15.7471H1.07519V16.7471Z" fill="black" fill-opacity="0.48" mask="url(#path-1-inside-1_2127_442)"/>
</svg>
