<svg width="51" height="51" viewBox="0 0 51 51" fill="none" xmlns="http://www.w3.org/2000/svg">
<circle cx="25.0814" cy="25.2443" r="25.0814" fill="#D9D9D9"/>
<path d="M23.4339 33.8261C25.4367 33.8261 27.3137 33.2215 28.8756 32.1885L34.393 37.7185C34.7583 38.0712 35.2244 38.2476 35.7283 38.2476C36.7738 38.2476 37.5422 37.4288 37.5422 36.3958C37.5422 35.9172 37.3784 35.4511 37.0257 35.0984L31.5461 29.5936C32.6798 27.9812 33.3475 26.0288 33.3475 23.9125C33.3475 18.4581 28.8882 13.9989 23.4339 13.9989C17.9921 13.9989 13.5203 18.4581 13.5203 23.9125C13.5203 29.3669 17.9795 33.8261 23.4339 33.8261ZM23.4339 31.1808C19.4407 31.1808 16.1656 27.9057 16.1656 23.9125C16.1656 19.9194 19.4407 16.6442 23.4339 16.6442C27.427 16.6442 30.7022 19.9194 30.7022 23.9125C30.7022 27.9057 27.427 31.1808 23.4339 31.1808Z" fill="#1C1C1E"/>
</svg>
