<svg width="51" height="51" viewBox="0 0 51 51" fill="none" xmlns="http://www.w3.org/2000/svg">
<circle cx="25.0814" cy="25.57" r="25.0814" fill="#D9D9D9"/>
<path d="M16.7153 34.649H34.3495C36.586 34.649 37.7506 33.4947 37.7506 31.2892V25.5176C37.7506 24.3633 37.5857 23.8686 37.0498 23.1677L33.6693 18.6638C32.4634 17.0663 31.8347 16.6232 29.9796 16.6232H21.0955C19.23 16.6232 18.6013 17.0663 17.4058 18.6638L14.015 23.1677C13.4894 23.8686 13.3245 24.3633 13.3245 25.5176V31.2892C13.3245 33.4947 14.4891 34.649 16.7153 34.649ZM25.5375 28.3106C23.971 28.3106 22.9919 27.0635 22.9919 25.7752V25.6928C22.9919 25.2187 22.7033 24.7652 22.1158 24.7652H15.9114C15.53 24.7652 15.4682 24.456 15.6434 24.2087L19.4052 19.1585C19.8381 18.5608 20.3843 18.334 21.0852 18.334H29.9899C30.6804 18.334 31.2267 18.5608 31.6698 19.1585L35.4214 24.2087C35.5966 24.456 35.5347 24.7652 35.1534 24.7652H28.949C28.3615 24.7652 28.0832 25.2187 28.0832 25.6928V25.7752C28.0832 27.0635 27.1041 28.3106 25.5375 28.3106Z" fill="#1C1C1E"/>
</svg>
