<?xml version="1.0" encoding="utf-8"?>
<!-- Generator: Adobe Illustrator 25.0.0, SVG Export Plug-In . SVG Version: 6.00 Build 0)  -->
<svg version="1.1" id="Layer_1" xmlns="http://www.w3.org/2000/svg" xmlns:xlink="http://www.w3.org/1999/xlink" x="0px" y="0px"
	 viewBox="0 0 51 51" style="enable-background:new 0 0 51 51;" xml:space="preserve">
<style type="text/css">
	.st0{fill:#D9D9D9;}
	.st1{fill:none;}
	.st2{display:none;fill:#1C1C1E;}
	.st3{fill:#1C1C1E;}
</style>
<circle class="st0" cx="25.5" cy="25.5" r="25.1"/>
<rect x="-44" y="11.1" class="st1" width="24.2" height="21.4"/>
<rect x="-23.7" y="9.1" class="st2" width="15.9" height="22.4"/>
<rect x="-38.2" y="9.6" class="st1" width="24.2" height="21.4"/>
<g>
	<g>
		<path class="st3" d="M32.3,28c-1.6,0-2.7-0.3-3.7-0.8c-0.2-0.1-0.5-0.1-0.7,0c-0.9,0.3-1.7,0.6-2.6,1c-0.5,0.2-0.9,0.3-1.3-0.2
			c-0.4-0.4-0.2-0.9,0-1.3c0.4-0.7,0.8-1.3,1.2-2c0.1-0.2,0.1-0.4,0-0.6c-2.6-4.7,0-10.3,5.2-11.5c4.4-1,8.9,2.2,9.3,6.8
			C40.1,24.1,36.6,28,32.3,28z"/>
		<path class="st3" d="M18.1,38.5c-1.9,0-3.8,0-5.6,0c-0.8,0-1.1-0.3-1.1-1.1c0-1.4,0-2.8,0-4.2c0-1.9,1.5-3.4,3.4-3.5
			c2.3,0,4.5,0,6.8,0c1.8,0,3.3,1.4,3.4,3.2c0.1,1.5,0,3.1,0,4.6c0,0.6-0.4,0.9-1,1h-0.1C21.9,38.5,20,38.5,18.1,38.5z"/>
		<path class="st3" d="M23.3,23.2c0,2.9-2.3,5.2-5.2,5.2s-5.2-2.3-5.3-5.2c0-2.9,2.3-5.2,5.2-5.2C21,17.9,23.3,20.2,23.3,23.2z"/>
	</g>
</g>
</svg>
