<?xml version="1.0" encoding="utf-8"?>
<!-- Generator: Adobe Illustrator 25.0.0, SVG Export Plug-In . SVG Version: 6.00 Build 0)  -->
<svg version="1.1" id="Layer_1" xmlns="http://www.w3.org/2000/svg" xmlns:xlink="http://www.w3.org/1999/xlink" x="0px" y="0px"
	 viewBox="0 0 51 51" style="enable-background:new 0 0 51 51;" xml:space="preserve">
<style type="text/css">
	.st0{fill:#D9D9D9;}
	.st1{fill-rule:evenodd;clip-rule:evenodd;fill:#070707;}
</style>
<circle class="st0" cx="25.1" cy="25.2" r="25.1"/>
<g>
	<path class="st1" d="M12.4,25.9c-0.7,0-1.2-0.5-1.2-1.1c0-0.3,0.2-0.7,0.5-0.9l12.2-10.2c1-0.9,2.3-0.9,3.3,0l5.5,4.6v-2
		c0-0.5,0.4-0.9,0.9-0.9h1.6c0.5,0,0.9,0.3,0.9,0.9v4.9l3.3,2.8c0.3,0.3,0.5,0.6,0.5,1c0,0.7-0.5,1.1-1.2,1.1c-0.4,0-0.7-0.2-1-0.4
		L26,15.8c-0.3-0.3-0.7-0.3-1,0l-11.6,9.7C13.1,25.7,12.8,25.9,12.4,25.9z M17.8,38c-1.7,0-2.8-1-2.8-2.7v-8.9l9.8-8.2
		c0.4-0.4,1-0.4,1.4,0l9.8,8.2v8.9c0,1.7-1.1,2.7-2.8,2.7H17.8z"/>
</g>
</svg>
