<?xml version="1.0" encoding="utf-8"?>
<!-- Generator: Adobe Illustrator 25.0.0, SVG Export Plug-In . SVG Version: 6.00 Build 0)  -->
<svg version="1.1" id="Layer_1" xmlns="http://www.w3.org/2000/svg" xmlns:xlink="http://www.w3.org/1999/xlink" x="0px" y="0px"
	 viewBox="0 0 51 51" style="enable-background:new 0 0 51 51;" xml:space="preserve">
<style type="text/css">
	.st0{fill:#D9D9D9;}
	.st1{fill:none;}
	.st2{display:none;fill:#1C1C1E;}
	.st3{fill:#1C1C1E;}
	.st4{fill:#FFFFFF;}
</style>
<circle class="st0" cx="25.5" cy="25.5" r="25.1"/>
<rect x="-44" y="11.1" class="st1" width="24.2" height="21.4"/>
<rect x="-23.7" y="9.1" class="st2" width="15.9" height="22.4"/>
<rect x="-38.2" y="9.6" class="st1" width="24.2" height="21.4"/>
<g>
	<path class="st3" d="M16,25.5c0-3.6,0-7.2,0-10.9c0-1.5,0.8-2.3,2.3-2.3c2.8,0,5.7,0,8.5,0c0.7,0,1.3,0.2,1.9,0.8
		c1.9,1.9,3.7,3.8,5.6,5.6c0.5,0.5,0.7,1,0.7,1.6c0,5.4,0,10.7,0,16.1c0,1.3-0.8,2.1-2.1,2.1c-4.9,0-9.8,0-14.7,0
		c-1.3,0-2.1-0.8-2.1-2.2C16,32.8,16,29.2,16,25.5z M33.2,19c-1.6-1.6-3.2-3.2-4.8-4.8c0,1.3,0,2.7,0,4.1c0,0.5,0.4,0.7,0.8,0.7
		C30.5,19,31.9,19,33.2,19z"/>
	<path class="st4" d="M33.2,19c-1.3,0-2.6,0-3.9,0c-0.4,0-0.8-0.2-0.8-0.7c0-1.4,0-2.7,0-4.1C30,15.8,31.6,17.4,33.2,19z"/>
</g>
</svg>
