<?xml version="1.0" encoding="utf-8"?>
<!-- Generator: Adobe Illustrator 25.0.0, SVG Export Plug-In . SVG Version: 6.00 Build 0)  -->
<svg version="1.1" id="Layer_1" xmlns="http://www.w3.org/2000/svg" xmlns:xlink="http://www.w3.org/1999/xlink" x="0px" y="0px"
	 viewBox="0 0 51 51" style="enable-background:new 0 0 51 51;" xml:space="preserve">
<style type="text/css">
	.st0{fill:#D9D9D9;}
	.st1{fill:#1C1C1E;}
</style>
<circle class="st0" cx="25.1" cy="25.2" r="25.1"/>
<g>
	<path class="st1" d="M21.1,12.5l10.8,1.9c1.1,0.2,2.1,0.5,2.9,1l0-0.8c-0.1-2.8-2-4.1-5.1-3.5L21.1,12.5z M17.2,37.1l14,2.5
		c2.7,0.5,4.3-1,4.3-3.9V20.3c0-2.7-1.3-3.7-4-4.2L18,13.7c-2-0.3-3.4,0.8-3.4,2.8v17.6C14.6,35.8,15.5,36.8,17.2,37.1z M19.8,21.3
		c-0.5-0.1-0.8-0.5-0.8-1c0-0.6,0.5-1,1.2-0.9l9.8,1.7c0.5,0.1,0.8,0.4,0.8,1c0,0.6-0.4,1-1.1,0.9L19.8,21.3z M19.8,26.5
		c-0.5-0.1-0.8-0.5-0.8-1c0-0.6,0.5-1,1.2-0.9l9.8,1.7c0.5,0.1,0.8,0.4,0.8,0.9c0,0.6-0.4,1.1-1.1,1L19.8,26.5z"/>
</g>
</svg>
