<svg width="35" height="66" viewBox="0 0 35 66" fill="none" xmlns="http://www.w3.org/2000/svg">
<path d="M1.75 4.28299C1.75 1.91756 3.66756 0 6.03299 0H29.6983C32.0638 0 33.9813 1.91756 33.9813 4.28299V4.64853C33.9813 6.81208 32.2274 8.56598 30.0639 8.56598V4.06521H5.66746V8.56598C3.5039 8.56598 1.75 6.81208 1.75 4.64853V4.28299Z" fill="#FFEEB0"/>
<path d="M1.75 4.82236C1.75 2.45693 3.66756 0.539368 6.03299 0.539368H29.6983C32.0638 0.539368 33.9813 2.45693 33.9813 4.82236V5.18789C33.9813 7.35145 32.2274 9.10535 30.0639 9.10535V4.60458H5.66746V9.10535C3.5039 9.10535 1.75 7.35145 1.75 5.1879V4.82236Z" fill="#F4CC3F"/>
<path d="M5.66943 4.55463H30.0607V21.8282L17.8651 30.3848L5.66943 21.8282V4.55463Z" fill="#CE4444"/>
<mask id="mask0_80_1630" style="mask-type:alpha" maskUnits="userSpaceOnUse" x="5" y="4" width="26" height="27">
<path d="M5.67578 4.55463H30.0558V21.8311L17.8658 30.3849L5.67578 21.8311V4.55463Z" fill="#AF3B3B"/>
</mask>
<g mask="url(#mask0_80_1630)">
<rect x="13.1973" y="-5.69836" width="9.33702" height="36.0832" fill="#983535"/>
</g>
<rect x="15.833" y="25.8566" width="3.92003" height="6.67856" rx="1.96001" fill="#EDBC41"/>
<circle cx="17.7929" cy="48.183" r="17.2046" fill="url(#paint0_linear_80_1630)"/>
<circle cx="17.7925" cy="48.183" r="13.4297" fill="#AD8418"/>
<mask id="mask1_80_1630" style="mask-type:alpha" maskUnits="userSpaceOnUse" x="5" y="36" width="28" height="28">
<circle cx="18.6055" cy="49.7142" r="13.461" fill="#C28B37"/>
</mask>
<g mask="url(#mask1_80_1630)">
<circle cx="17.7925" cy="48.183" r="13.461" fill="#F5B307"/>
</g>
<circle cx="17.975" cy="48.2797" r="11.0585" fill="#C18222"/>
<path d="M17.9752 39.379L20.5824 44.6834L25.797 45.3465L22.2163 49.4309L23.1897 55.2924L17.9752 52.6401L12.7606 55.2924L13.7427 49.4309L10.1533 45.3465L15.3679 44.6834L17.9752 39.379Z" fill="url(#paint1_linear_80_1630)"/>
<path d="M18.4239 39.1584L17.9752 38.2455L17.5264 39.1584L15.0379 44.2214L10.0903 44.8505L9.15618 44.9693L9.77774 45.6765L13.2103 49.5826L12.2675 55.2097L12.1037 56.1875L12.9873 55.738L17.9752 53.2011L22.963 55.738L23.8451 56.1866L23.683 55.2105L22.7484 49.5825L26.173 45.6761L26.7928 44.9691L25.8601 44.8505L20.9125 44.2214L18.4239 39.1584Z" stroke="#C17502" stroke-opacity="0.2"/>
<path opacity="0.5" d="M30.1123 15.374L5.56791 15.374L5.56791 4.58528L30.1123 4.58528L30.1123 15.374Z" fill="url(#paint2_linear_80_1630)"/>
<defs>
<linearGradient id="paint0_linear_80_1630" x1="17.7929" y1="30.9785" x2="17.7929" y2="65.3876" gradientUnits="userSpaceOnUse">
<stop stop-color="#FFEBA5"/>
<stop offset="1" stop-color="#EA8C00"/>
</linearGradient>
<linearGradient id="paint1_linear_80_1630" x1="17.9752" y1="39.379" x2="17.9752" y2="55.2924" gradientUnits="userSpaceOnUse">
<stop stop-color="white"/>
<stop offset="0.0001" stop-color="#FFFFFD"/>
<stop offset="1" stop-color="#FFE86D"/>
</linearGradient>
<linearGradient id="paint2_linear_80_1630" x1="17.8401" y1="15.374" x2="17.8401" y2="4.58528" gradientUnits="userSpaceOnUse">
<stop stop-color="#A21D1D" stop-opacity="0"/>
<stop offset="1" stop-color="#5A1414"/>
</linearGradient>
</defs>
</svg>
