<svg width="35" height="65" viewBox="0 0 35 65" fill="none" xmlns="http://www.w3.org/2000/svg">
<path d="M1.97705 4.2487C1.97705 1.90221 3.87926 0 6.22575 0H29.7016C32.0481 0 33.9503 1.90221 33.9503 4.2487V4.61131C33.9503 6.75754 32.2105 8.49741 30.0642 8.49741V4.03267H5.86314V8.49741C3.71691 8.49741 1.97705 6.75754 1.97705 4.61131V4.2487Z" fill="#FFEEB0"/>
<path d="M1.97705 4.7838C1.97705 2.4373 3.87926 0.535095 6.22575 0.535095H29.7016C32.0481 0.535095 33.9503 2.4373 33.9503 4.7838V5.14641C33.9503 7.29264 32.2105 9.0325 30.0642 9.0325V4.56776H5.86314V9.0325C3.71691 9.0325 1.97705 7.29264 1.97705 5.14641V4.7838Z" fill="#F4CC3F"/>
<path d="M5.86572 4.51813H30.0617V21.6534L17.9637 30.1416L5.86572 21.6534V4.51813Z" fill="#2874BA"/>
<mask id="mask0_80_1614" style="mask-type:alpha" maskUnits="userSpaceOnUse" x="5" y="4" width="26" height="27">
<path d="M5.91699 4.51813H30.1018V21.6563L18.0094 30.1416L5.91699 21.6563V4.51813Z" fill="#2874BA"/>
</mask>
<g mask="url(#mask0_80_1614)">
<rect x="13.3784" y="-5.65277" width="9.26227" height="35.7944" fill="#2D4071"/>
</g>
<rect x="15.9473" y="25.6497" width="3.88864" height="6.62509" rx="1.94432" fill="#C09525"/>
<circle cx="17.8915" cy="47.7973" r="17.0668" fill="url(#paint0_linear_80_1614)"/>
<circle cx="17.8915" cy="47.7973" r="13.3222" fill="#705100"/>
<mask id="mask1_80_1614" style="mask-type:alpha" maskUnits="userSpaceOnUse" x="5" y="35" width="28" height="28">
<circle cx="18.6979" cy="49.3162" r="13.3532" fill="#C28B37"/>
</mask>
<g mask="url(#mask1_80_1614)">
<circle cx="17.8918" cy="47.7972" r="13.3532" fill="#E3A504"/>
</g>
<circle cx="18.072" cy="47.8932" r="10.9699" fill="#C18222"/>
<path d="M18.0717 39.0637L20.6581 44.3257L25.8309 44.9834L22.2789 49.0351L23.2445 54.8497L18.0717 52.2187L12.8989 54.8497L13.8731 49.0351L10.3125 44.9834L15.4853 44.3257L18.0717 39.0637Z" fill="url(#paint1_linear_80_1614)"/>
<path d="M18.5204 38.8431L18.0717 37.9302L17.623 38.8431L15.1553 43.8636L10.2494 44.4874L9.31536 44.6062L9.93692 45.3135L13.3407 49.1868L12.4058 54.767L12.242 55.7447L13.1256 55.2953L18.0717 52.7796L23.0179 55.2953L23.8999 55.7439L23.7378 54.7677L22.811 49.1868L26.2069 45.313L26.8267 44.606L25.894 44.4874L20.9881 43.8636L18.5204 38.8431Z" stroke="#A36D1D" stroke-opacity="0.2"/>
<path opacity="0.5" d="M30.1787 15.2508L5.83081 15.2508L5.83081 4.54848L30.1787 4.54849L30.1787 15.2508Z" fill="url(#paint2_linear_80_1614)"/>
<defs>
<linearGradient id="paint0_linear_80_1614" x1="17.8915" y1="30.7305" x2="17.8915" y2="64.8641" gradientUnits="userSpaceOnUse">
<stop stop-color="#FFE176"/>
<stop offset="1" stop-color="#FFD12D"/>
</linearGradient>
<linearGradient id="paint1_linear_80_1614" x1="18.0717" y1="39.0637" x2="18.0717" y2="54.8497" gradientUnits="userSpaceOnUse">
<stop stop-color="white"/>
<stop offset="0.0001" stop-color="#FFFFFD"/>
<stop offset="1" stop-color="#FFE86D"/>
</linearGradient>
<linearGradient id="paint2_linear_80_1614" x1="18.0048" y1="15.2509" x2="18.0048" y2="4.54848" gradientUnits="userSpaceOnUse">
<stop stop-color="#1D62A2" stop-opacity="0"/>
<stop offset="1" stop-color="#14275A"/>
</linearGradient>
</defs>
</svg>
