<svg width="44" height="61" viewBox="0 0 44 61" fill="none" xmlns="http://www.w3.org/2000/svg">
<path d="M19.2437 37.9813L24.6319 41.0922L13.6901 60.0438L10.5496 53.0398L19.2437 37.9813Z" fill="#CE4444"/>
<path d="M19.2437 37.9813L13.8554 34.8704L2.91368 53.822L10.5496 53.0398L19.2437 37.9813Z" fill="#983535"/>
<path d="M26.9302 37.9813L21.542 41.0922L32.4837 60.0438L35.6242 53.0398L26.9302 37.9813Z" fill="#983535"/>
<path d="M26.9302 37.9813L32.3184 34.8704L43.2602 53.822L35.6242 53.0398L26.9302 37.9813Z" fill="#CE4444"/>
<circle cx="22.9222" cy="24.9323" r="19.0506" fill="url(#paint0_linear_80_1580)" stroke="#E8C447"/>
<circle cx="22.9223" cy="24.9322" r="14.4804" fill="#A88300"/>
<mask id="mask0_80_1580" style="mask-type:alpha" maskUnits="userSpaceOnUse" x="9" y="11" width="30" height="30">
<circle cx="23.6953" cy="26.4782" r="14.5141" fill="#C28B37"/>
</mask>
<g mask="url(#mask0_80_1580)">
<circle cx="22.9233" cy="24.9324" r="14.5141" fill="#C09525"/>
</g>
<path d="M23.0001 14.8351L26.131 21.0969L32.3928 21.8797L28.0931 26.7013L29.2619 33.6206L23.0001 30.4896L16.7383 33.6206L17.9176 26.7013L13.6074 21.8797L19.8692 21.0969L23.0001 14.8351Z" fill="url(#paint1_linear_80_1580)"/>
<path d="M4.98619 13.6867L7.02761 9.19393L4.98619 4.70112L9.479 6.74254L13.9718 4.70112L11.9304 9.19393L13.9718 13.6867L9.479 11.6453L4.98619 13.6867Z" fill="white"/>
<defs>
<linearGradient id="paint0_linear_80_1580" x1="22.9222" y1="6.38171" x2="22.9222" y2="43.4829" gradientUnits="userSpaceOnUse">
<stop stop-color="#FFC600"/>
<stop offset="1" stop-color="#FFDE69"/>
</linearGradient>
<linearGradient id="paint1_linear_80_1580" x1="23.0001" y1="14.8351" x2="23.0001" y2="33.6206" gradientUnits="userSpaceOnUse">
<stop stop-color="#FFFCDD"/>
<stop offset="1" stop-color="#FFE896"/>
</linearGradient>
</defs>
</svg>
