<svg width="34" height="47" viewBox="0 0 34 47" fill="none" xmlns="http://www.w3.org/2000/svg">
<path d="M13.8564 28.2068L18.3572 30.8054L9.21756 46.6358L6.59429 40.7853L13.8564 28.2068Z" fill="#418ED6"/>
<path d="M13.8564 28.2068L9.35565 25.6083L0.215974 41.4387L6.59429 40.7853L13.8564 28.2068Z" fill="#2B63A6"/>
<path d="M20.2778 28.2068L15.777 30.8054L24.9167 46.6358L27.54 40.7853L20.2778 28.2068Z" fill="#2B63A6"/>
<path d="M20.2778 28.2068L24.7786 25.6083L33.9183 41.4387L27.54 40.7853L20.2778 28.2068Z" fill="#418ED6"/>
<circle cx="17.0598" cy="17.3069" r="15.9954" fill="#E3E3E3" stroke="#ECECEC"/>
<circle cx="17.0599" cy="17.307" r="12.0955" fill="#595959"/>
<mask id="mask0_80_1592" style="mask-type:alpha" maskUnits="userSpaceOnUse" x="5" y="6" width="25" height="25">
<circle cx="17.7052" cy="18.5982" r="12.1237" fill="#C28B37"/>
</mask>
<g mask="url(#mask0_80_1592)">
<circle cx="17.0592" cy="17.3069" r="12.1237" fill="url(#paint0_linear_80_1592)"/>
</g>
<path d="M17.125 8.8728L19.7403 14.1033L24.9708 14.7571L21.3792 18.7846L22.3555 24.5643L17.125 21.9491L11.8945 24.5643L12.8796 18.7846L9.2793 14.7571L14.5098 14.1033L17.125 8.8728Z" fill="url(#paint1_linear_80_1592)"/>
<defs>
<linearGradient id="paint0_linear_80_1592" x1="17.0592" y1="5.18317" x2="17.0592" y2="29.4305" gradientUnits="userSpaceOnUse">
<stop stop-color="#9CA1A3"/>
<stop offset="1" stop-color="#9CA1A3" stop-opacity="0"/>
</linearGradient>
<linearGradient id="paint1_linear_80_1592" x1="17.125" y1="8.8728" x2="17.125" y2="24.5643" gradientUnits="userSpaceOnUse">
<stop stop-color="#F1F5F5"/>
<stop offset="0.0001" stop-color="white"/>
<stop offset="1" stop-color="#F1F5F5"/>
</linearGradient>
</defs>
</svg>
