<svg width="16" height="22" viewBox="0 0 16 22" fill="none" xmlns="http://www.w3.org/2000/svg">
<path d="M0.407227 7.98828C0.407227 7.21924 1.00537 6.62109 1.77441 6.62109H6.63281V1.95801C6.63281 1.18896 7.21875 0.615234 7.98779 0.615234C8.76904 0.615234 9.35498 1.18896 9.35498 1.95801V6.62109H14.2256C14.9946 6.62109 15.5928 7.21924 15.5928 7.98828C15.5928 8.75732 14.9946 9.35547 14.2256 9.35547H9.35498V14.0552C9.35498 14.8242 8.76904 15.3979 7.98779 15.3979C7.21875 15.3979 6.63281 14.8242 6.63281 14.0552V9.35547H1.77441C1.00537 9.35547 0.407227 8.75732 0.407227 7.98828ZM0.407227 20.415C0.407227 19.6338 1.00537 19.0479 1.77441 19.0479H14.2256C14.9824 19.0479 15.5928 19.6338 15.5928 20.415C15.5928 21.1841 14.9824 21.77 14.2256 21.77H1.77441C1.00537 21.77 0.407227 21.1841 0.407227 20.415Z" fill="#1C1C1E"/>
</svg>
