<?xml version="1.0" encoding="utf-8"?>
<!-- Generator: Adobe Illustrator 25.0.0, SVG Export Plug-In . SVG Version: 6.00 Build 0)  -->
<svg version="1.1" id="Layer_1" xmlns="http://www.w3.org/2000/svg" xmlns:xlink="http://www.w3.org/1999/xlink" x="0px" y="0px"
	 viewBox="0 0 25 26" style="enable-background:new 0 0 25 26;" xml:space="preserve">
<style type="text/css">
	.st0{clip-path:url(#SVGID_2_);}
	.st1{fill:#D8EB61;}
	.st2{fill:#505050;}
</style>
<g>
	<defs>
		<rect id="SVGID_1_" x="-3.7" y="-3.1" width="31.8" height="33.1"/>
	</defs>
	<clipPath id="SVGID_2_">
		<use xlink:href="#SVGID_1_"  style="overflow:visible;"/>
	</clipPath>
	<g class="st0">
		<path class="st1" d="M6.2,22.1h2.1c0.2,0,0.3,0,0.5,0.2l1.5,1.6c1.3,1.4,2.5,1.4,3.8,0l1.5-1.6c0.1-0.2,0.3-0.2,0.5-0.2h2.1
			c1.8,0,2.7-0.9,2.7-2.8v-2.2c0-0.2,0.1-0.3,0.2-0.5l1.5-1.6c1.3-1.4,1.3-2.6,0-4l-1.5-1.6C21,9.3,21,9.2,21,9V6.7
			c0-1.9-0.9-2.8-2.7-2.8h-2.1c-0.2,0-0.3-0.1-0.5-0.2l-1.5-1.6c-1.3-1.4-2.5-1.4-3.8,0L8.8,3.7C8.6,3.9,8.5,3.9,8.3,3.9H6.2
			c-1.8,0-2.7,0.9-2.7,2.8V9c0,0.2,0,0.3-0.2,0.5L1.8,11c-1.3,1.4-1.3,2.6,0,4l1.5,1.6c0.1,0.1,0.2,0.3,0.2,0.5v2.2
			C3.5,21.2,4.3,22.1,6.2,22.1z"/>
		<g>
			<path class="st2" d="M9.4,13.3c-1.4,0-2.2-1.1-2.2-2.5c0-1.4,0.7-2.5,2.2-2.5c1.5,0,2.2,1.1,2.2,2.5
				C11.6,12.2,10.8,13.3,9.4,13.3z M9.2,17.2l4.9-8.8h1.1l-4.9,8.8H9.2z M9.4,12.4c0.7,0,1-0.6,1-1.6s-0.3-1.6-1-1.6
				c-0.7,0-1,0.6-1,1.6S8.7,12.4,9.4,12.4z M15.1,17.4c-1.5,0-2.2-1.1-2.2-2.5c0-1.4,0.7-2.5,2.2-2.5c1.5,0,2.2,1.1,2.2,2.5
				C17.3,16.3,16.6,17.4,15.1,17.4z M15.1,16.5c0.7,0,1-0.6,1-1.6s-0.3-1.6-1-1.6c-0.7,0-1,0.6-1,1.6S14.4,16.5,15.1,16.5z"/>
		</g>
	</g>
</g>
</svg>
