<svg width="25" height="24" viewBox="0 0 25 24" fill="none" xmlns="http://www.w3.org/2000/svg">
<path fill-rule="evenodd" clip-rule="evenodd" d="M20.5 9L20.5 16.5C20.5 18.9853 18.4853 21 16 21C13.5147 21 11.5 18.9853 11.5 16.5L11.5 7.5C11.5 6.11929 10.3807 5 9 5C7.61929 5 6.5 6.11929 6.5 7.5L6.5 15L4.5 15L4.5 7.5C4.5 5.01472 6.51472 3 9 3C11.4853 3 13.5 5.01472 13.5 7.5L13.5 16.5C13.5 17.8807 14.6193 19 16 19C17.3807 19 18.5 17.8807 18.5 16.5L18.5 9L20.5 9Z" fill="black"/>
<circle cx="5.5" cy="19" r="1" stroke="black" stroke-width="2"/>
<path fill-rule="evenodd" clip-rule="evenodd" d="M19.5 7C20.6046 7 21.5 6.10457 21.5 5C21.5 3.89543 20.6046 3 19.5 3C18.3954 3 17.5 3.89543 17.5 5C17.5 6.10457 18.3954 7 19.5 7Z" fill="black"/>
</svg>
