<svg width="17" height="19" viewBox="0 0 17 19" fill="none" xmlns="http://www.w3.org/2000/svg">
<path d="M2.5 11C2.5 11.8667 2.675 12.6875 3.025 13.4625C3.375 14.2375 3.875 14.9167 4.525 15.5C4.50833 15.4167 4.5 15.3417 4.5 15.275V15.05C4.5 14.5167 4.6 14.0167 4.8 13.55C5 13.0833 5.29167 12.6583 5.675 12.275L8.5 9.5L11.325 12.275C11.7083 12.6583 12 13.0833 12.2 13.55C12.4 14.0167 12.5 14.5167 12.5 15.05V15.275C12.5 15.3417 12.4917 15.4167 12.475 15.5C13.125 14.9167 13.625 14.2375 13.975 13.4625C14.325 12.6875 14.5 11.8667 14.5 11C14.5 10.1667 14.3458 9.37917 14.0375 8.6375C13.7292 7.89583 13.2833 7.23333 12.7 6.65C12.3667 6.86667 12.0167 7.02917 11.65 7.1375C11.2833 7.24583 10.9083 7.3 10.525 7.3C9.49167 7.3 8.59583 6.95833 7.8375 6.275C7.07917 5.59167 6.64167 4.75 6.525 3.75C5.875 4.3 5.3 4.87083 4.8 5.4625C4.3 6.05417 3.87917 6.65417 3.5375 7.2625C3.19583 7.87083 2.9375 8.49167 2.7625 9.125C2.5875 9.75833 2.5 10.3833 2.5 11ZM8.5 12.3L7.075 13.7C6.89167 13.8833 6.75 14.0917 6.65 14.325C6.55 14.5583 6.5 14.8 6.5 15.05C6.5 15.5833 6.69583 16.0417 7.0875 16.425C7.47917 16.8083 7.95 17 8.5 17C9.05 17 9.52083 16.8083 9.9125 16.425C10.3042 16.0417 10.5 15.5833 10.5 15.05C10.5 14.7833 10.45 14.5375 10.35 14.3125C10.25 14.0875 10.1083 13.8833 9.925 13.7L8.5 12.3ZM8.5 0V3.3C8.5 3.86667 8.69583 4.34167 9.0875 4.725C9.47917 5.10833 9.95833 5.3 10.525 5.3C10.825 5.3 11.1042 5.2375 11.3625 5.1125C11.6208 4.9875 11.85 4.8 12.05 4.55L12.5 4C13.7333 4.7 14.7083 5.675 15.425 6.925C16.1417 8.175 16.5 9.53333 16.5 11C16.5 13.2333 15.725 15.125 14.175 16.675C12.625 18.225 10.7333 19 8.5 19C6.26667 19 4.375 18.225 2.825 16.675C1.275 15.125 0.5 13.2333 0.5 11C0.5 8.85 1.22083 6.80833 2.6625 4.875C4.10417 2.94167 6.05 1.31667 8.5 0Z" fill="black"/>
</svg>
