<svg width="34" height="35" viewBox="0 0 34 35" fill="none" xmlns="http://www.w3.org/2000/svg">
<path fill-rule="evenodd" clip-rule="evenodd" d="M4.45708 15.4805C6.01861 14.9241 7.66185 14.1845 8.92903 13.1139C10.434 11.8422 11.0461 10.2044 11.4571 8.48047C11.9848 6.2656 12.1957 3.90621 12.8355 1.68775C13.0725 0.863904 13.5284 0.552488 13.724 0.414283C14.2185 0.0651807 14.7184 -0.0281342 15.1886 0.00686576C15.7459 0.0472504 16.5115 0.258133 17.0149 1.19236C17.0867 1.32608 17.18 1.52981 17.2429 1.80891C17.2886 2.01353 17.3182 2.65339 17.3667 2.91723C17.4879 3.56698 17.5893 4.21674 17.6844 4.87008C18.0012 7.04456 18.1834 8.89146 19.184 10.8892C20.5419 13.6012 21.9024 15.2606 23.7475 15.9956C25.5316 16.7063 27.6648 16.5726 30.3903 16.0153C30.6497 15.9525 30.9063 15.8987 31.1603 15.8547C32.362 15.6447 33.5107 16.4335 33.7467 17.6307C33.9827 18.827 33.219 19.9928 32.0281 20.2557C31.7796 20.3104 31.5345 20.3625 31.2922 20.4101C27.6092 21.3219 23.3454 24.576 20.8676 27.4253C20.1039 28.3039 18.9857 30.7602 17.8451 32.3271C17.0033 33.483 16.0573 34.2449 15.2631 34.5142C14.7309 34.6954 14.2822 34.6677 13.9116 34.5761C13.3731 34.4433 12.9262 34.1516 12.5834 33.6876C12.3967 33.4336 12.2235 33.0935 12.1409 32.6592C12.1014 32.4501 12.097 31.9188 12.0979 31.6783C11.8654 30.8787 11.581 30.0979 11.3736 29.2911C10.8792 27.3661 9.90901 26.1474 8.75671 24.5374C7.67889 23.0306 6.52123 22.0838 4.82418 21.3281C4.60341 21.2743 2.82199 20.8381 2.19289 20.5877C1.27392 20.2207 0.835945 19.6059 0.677099 19.2748C0.406971 18.713 0.379175 18.2221 0.433021 17.8129C0.512893 17.2089 0.78392 16.692 1.26495 16.2747C1.56289 16.0153 2.00803 15.7631 2.60392 15.6402C3.06431 15.5442 4.28567 15.4885 4.45708 15.4805ZM14.9077 12.343C14.9903 12.527 15.0783 12.7119 15.1716 12.8985C17.1603 16.8706 19.3841 19.0881 22.0872 20.1642L22.1779 20.1992C20.3695 21.5417 18.7326 23.0422 17.4816 24.4808C16.9664 25.0731 16.2844 26.3035 15.5476 27.5653C14.8781 25.3891 13.7833 23.8509 12.4066 21.9259C11.3548 20.4567 10.2527 19.3511 8.89852 18.4501C9.94942 17.9107 10.9518 17.2789 11.825 16.5412C13.2789 15.3126 14.24 13.8893 14.9077 12.343Z" fill="#FFC33F"/>
</svg>
