<svg width="52" height="50" viewBox="0 0 52 50" fill="none" xmlns="http://www.w3.org/2000/svg">
<mask id="path-1-inside-1_80_1572" fill="white">
<path fill-rule="evenodd" clip-rule="evenodd" d="M13.4443 48.2495L25.5897 39.3275L37.7351 48.2495C40.2103 50.0915 43.1459 48.4222 41.9947 45.0837L37.2746 30.866L49.6503 21.944C52.183 20.1021 51.2045 16.9362 48.0962 16.9362H32.7849L28.2375 2.77612C27.259 -0.159505 23.8629 -0.159505 22.9419 2.77612L18.337 16.9362H2.96811C-0.0826456 16.9362 -1.11875 20.1021 1.47151 21.944L13.9048 30.866L9.12716 45.0837C7.97594 48.3647 10.9116 50.0915 13.4443 48.2495Z"/>
</mask>
<path fill-rule="evenodd" clip-rule="evenodd" d="M13.4443 48.2495L25.5897 39.3275L37.7351 48.2495C40.2103 50.0915 43.1459 48.4222 41.9947 45.0837L37.2746 30.866L49.6503 21.944C52.183 20.1021 51.2045 16.9362 48.0962 16.9362H32.7849L28.2375 2.77612C27.259 -0.159505 23.8629 -0.159505 22.9419 2.77612L18.337 16.9362H2.96811C-0.0826456 16.9362 -1.11875 20.1021 1.47151 21.944L13.9048 30.866L9.12716 45.0837C7.97594 48.3647 10.9116 50.0915 13.4443 48.2495Z" fill="#F6D42D"/>
<path d="M25.5897 39.3275L25.8857 38.9246L25.5897 38.7071L25.2937 38.9246L25.5897 39.3275ZM13.4443 48.2495L13.7383 48.6539L13.7403 48.6525L13.4443 48.2495ZM37.7351 48.2495L38.0336 47.8484L38.0311 47.8466L37.7351 48.2495ZM41.9947 45.0837L41.5201 45.2412L41.522 45.2467L41.9947 45.0837ZM37.2746 30.866L36.9822 30.4604L36.6844 30.6751L36.8001 31.0236L37.2746 30.866ZM49.6503 21.944L49.9427 22.3496L49.9444 22.3484L49.6503 21.944ZM32.7849 16.9362L32.3088 17.0891L32.4203 17.4362H32.7849V16.9362ZM28.2375 2.77612L28.7136 2.62323L28.7119 2.61801L28.2375 2.77612ZM22.9419 2.77612L23.4174 2.93076L23.4189 2.92579L22.9419 2.77612ZM18.337 16.9362V17.4362H18.7001L18.8125 17.0908L18.337 16.9362ZM1.47151 21.944L1.76302 21.5378L1.76127 21.5366L1.47151 21.944ZM13.9048 30.866L14.3787 31.0253L14.4964 30.6752L14.1963 30.4598L13.9048 30.866ZM9.12716 45.0837L9.599 45.2492L9.60112 45.2429L9.12716 45.0837ZM25.2937 38.9246L13.1482 47.8466L13.7403 48.6525L25.8857 39.7305L25.2937 38.9246ZM38.0311 47.8466L25.8857 38.9246L25.2937 39.7305L37.4391 48.6525L38.0311 47.8466ZM41.522 45.2467C42.045 46.7635 41.6078 47.7495 40.9459 48.1943C40.2607 48.6547 39.1414 48.6728 38.0336 47.8484L37.4366 48.6507C38.804 49.6683 40.39 49.7727 41.5037 49.0243C42.6405 48.2603 43.0955 46.7424 42.4673 44.9207L41.522 45.2467ZM36.8001 31.0236L41.5201 45.2412L42.4692 44.9261L37.7492 30.7085L36.8001 31.0236ZM49.3579 21.5384L36.9822 30.4604L37.567 31.2716L49.9427 22.3496L49.3579 21.5384ZM48.0962 17.4362C49.4722 17.4362 50.2707 18.1217 50.511 18.8974C50.7526 19.6771 50.4836 20.7198 49.3562 21.5397L49.9444 22.3484C51.3498 21.3263 51.8578 19.865 51.4662 18.6014C51.0734 17.3336 49.8284 16.4362 48.0962 16.4362V17.4362ZM32.7849 17.4362H48.0962V16.4362H32.7849V17.4362ZM27.7615 2.929L32.3088 17.0891L33.2609 16.7833L28.7136 2.62324L27.7615 2.929ZM23.4189 2.92579C23.8233 1.63686 24.7296 1.0744 25.5681 1.0744C26.409 1.0744 27.3318 1.64021 27.7632 2.93423L28.7119 2.61801C28.1647 0.976402 26.9002 0.0744019 25.5681 0.0744019C24.2336 0.0744019 22.9814 0.979758 22.4648 2.62645L23.4189 2.92579ZM18.8125 17.0908L23.4174 2.93075L22.4664 2.62149L17.8615 16.7816L18.8125 17.0908ZM2.96811 17.4362H18.337V16.4362H2.96811V17.4362ZM1.76127 21.5366C0.607506 20.7161 0.341103 19.6749 0.582027 18.8974C0.823157 18.1192 1.62383 17.4362 2.96811 17.4362V16.4362C1.26163 16.4362 0.0188757 17.3362 -0.373168 18.6014C-0.765418 19.8673 -0.254742 21.33 1.18175 22.3515L1.76127 21.5366ZM14.1963 30.4598L1.76302 21.5378L1.18 22.3503L13.6132 31.2723L14.1963 30.4598ZM9.60112 45.2429L14.3787 31.0253L13.4308 30.7068L8.65321 44.9244L9.60112 45.2429ZM13.1502 47.8452C12.0149 48.6708 10.8792 48.6423 10.1839 48.1732C9.51125 47.7195 9.07879 46.7317 9.59896 45.2492L8.65536 44.9181C8.02431 46.7166 8.48405 48.2328 9.62462 49.0022C10.7424 49.7563 12.3409 49.6702 13.7383 48.6539L13.1502 47.8452Z" fill="black" fill-opacity="0.5" mask="url(#path-1-inside-1_80_1572)"/>
</svg>
