<svg width="32" height="33" viewBox="0 0 32 33" fill="none" xmlns="http://www.w3.org/2000/svg">
<path fill-rule="evenodd" clip-rule="evenodd" d="M4.20264 14.5959C5.67495 14.0712 7.22429 13.374 8.41906 12.3645C9.83806 11.1655 10.4151 9.62133 10.8027 7.99586C11.3002 5.90756 11.499 3.68299 12.1023 1.5913C12.3257 0.814531 12.7556 0.52091 12.9401 0.390602C13.4063 0.0614484 13.8776 -0.0265342 14.321 0.0064658C14.8464 0.0445427 15.5682 0.243375 16.0429 1.12422C16.1106 1.2503 16.1986 1.44239 16.2578 1.70554C16.301 1.89846 16.3289 2.50176 16.3746 2.75053C16.4888 3.36314 16.5844 3.97578 16.6741 4.59178C16.9728 6.64201 17.1446 8.38337 18.0881 10.2669C19.3683 12.824 20.6511 14.3885 22.3908 15.0815C24.0729 15.7517 26.0842 15.6256 28.654 15.1002C28.8985 15.0409 29.1405 14.9902 29.38 14.9487C30.513 14.7507 31.596 15.4945 31.8186 16.6232C32.0411 17.7512 31.3211 18.8503 30.1982 19.0982C29.9638 19.1498 29.7328 19.1989 29.5044 19.2438C26.0318 20.1035 22.0117 23.1716 19.6754 25.8582C18.9553 26.6865 17.9011 29.0025 16.8256 30.4798C16.0319 31.5697 15.14 32.2881 14.3912 32.5419C13.8894 32.7128 13.4664 32.6866 13.1169 32.6003C12.6092 32.4751 12.1878 32.2001 11.8646 31.7626C11.6886 31.5231 11.5253 31.2024 11.4474 30.7929C11.4102 30.5958 11.406 30.0949 11.4068 29.8681C11.1877 29.1142 10.9194 28.378 10.724 27.6173C10.2577 25.8023 9.34304 24.6532 8.25658 23.1352C7.24035 21.7145 6.14885 20.8218 4.54877 20.1094C4.34062 20.0586 2.661 19.6474 2.06784 19.4113C1.20138 19.0652 0.788435 18.4856 0.638666 18.1734C0.383973 17.6437 0.357766 17.1809 0.408535 16.795C0.483843 16.2255 0.739383 15.7382 1.19292 15.3447C1.47384 15.1002 1.89354 14.8624 2.45539 14.7465C2.88946 14.6559 4.04103 14.6035 4.20264 14.5959ZM14.0561 11.6377C14.134 11.8111 14.2169 11.9855 14.3049 12.1615C16.18 15.9065 18.2767 17.9974 20.8254 19.0119L20.9108 19.0449C19.2058 20.3108 17.6624 21.7255 16.4829 23.0819C15.9972 23.6404 15.3541 24.8005 14.6594 25.9902C14.0282 23.9382 12.9959 22.4879 11.6979 20.6729C10.7062 19.2878 9.66714 18.2453 8.39029 17.3958C9.38114 16.8873 10.3263 16.2916 11.1496 15.596C12.5204 14.4376 13.4266 13.0956 14.0561 11.6377Z" fill="#070707"/>
</svg>
