<svg width="55" height="52" viewBox="0 0 55 52" fill="none" xmlns="http://www.w3.org/2000/svg">
<ellipse cx="27.5" cy="26" rx="27.5" ry="26" fill="#00A698"/>
<path d="M31.5043 23.6886C33.369 23.6886 35.1573 24.3996 36.4758 25.6653C37.7943 26.9309 38.5351 28.6475 38.5351 30.4374C38.5396 31.7659 38.1305 33.0653 37.3606 34.1691L38.5351 37.1862L34.5813 36.5033C33.6304 36.9484 32.5872 37.1819 31.5293 37.1862C30.4714 37.1904 29.4261 36.9654 28.4714 36.5281C27.5166 36.0908 26.677 35.4521 26.0151 34.66C25.3531 33.868 24.886 32.9427 24.6484 31.9531C24.4108 30.9636 24.4089 29.9354 24.6428 28.945C24.8767 27.9547 25.3405 27.0278 25.9995 26.2334C26.6584 25.4391 27.4957 24.7977 28.4488 24.357C29.4019 23.9164 30.4464 23.6879 31.5043 23.6886Z" stroke="white" stroke-width="2" stroke-linecap="round" stroke-linejoin="round"/>
<path d="M32.5138 19.7346C31.3997 18.3738 29.8713 17.3804 28.1414 16.8926C26.4115 16.4047 24.5662 16.4468 22.8624 17.0129C21.1585 17.5791 19.681 18.6411 18.6355 20.0511C17.59 21.461 17.0286 23.1489 17.0293 24.8796C17.0242 26.5247 17.5311 28.1338 18.4851 29.5005L17.0293 33.2162L20.5365 32.6128" stroke="white" stroke-width="2" stroke-linecap="round" stroke-linejoin="round"/>
</svg>
