<svg width="425" height="20" viewBox="0 0 425 20" fill="none" xmlns="http://www.w3.org/2000/svg">
<path fill-rule="evenodd" clip-rule="evenodd" d="M180.29 2.143C160.347 2.75808 140.638 3.51437 121.418 4.3412C94.2108 5.51086 67.014 6.72086 39.9811 8.63669C31.4718 9.24168 22.8304 9.62483 14.3743 10.3811C9.06606 10.855 2.02746 11.5305 1.10373 11.6716C0.620584 11.7523 0.409804 11.8734 0.341695 11.9137C-0.137196 12.1961 -0.0498161 12.4682 0.220491 12.68C0.32904 12.7707 0.603527 12.9926 1.3655 13.0229C52.3237 15.09 104.431 11.0567 155.451 10.6332C243.929 9.90716 335.088 12.791 422.864 19.0829C423.63 19.1334 424.375 18.8812 424.481 18.5081C424.609 18.1451 424.056 17.7922 423.29 17.7418C335.365 11.4397 244.057 8.54583 155.409 9.28191C107.86 9.67515 59.373 13.2145 11.7585 12.0045C12.8525 11.9036 13.9253 11.8028 14.9043 11.712C23.3264 10.9558 31.9315 10.5827 40.4068 9.97772C67.3822 8.06189 94.5237 6.8519 121.695 5.69233C155.409 4.24034 190.591 2.99 226.05 2.40517C238.736 2.49592 251.378 2.58671 264.021 2.69762C291.371 2.93962 318.849 3.64546 346.135 4.59328C354.351 4.8857 362.566 5.18817 370.782 5.45034C373.506 5.54109 380.53 5.80321 381.509 5.78304C382.722 5.76287 382.956 5.27892 382.978 5.19826C383.041 5.01676 382.999 4.76466 382.403 4.55291C382.339 4.52266 381.956 4.42177 381.105 4.36127C331.491 0.791789 278.516 0.196969 226.093 1.05405C170.797 0.680966 115.288 0.51956 60.1329 0.348145C59.3433 0.348145 58.6983 0.650687 58.692 1.02377C58.6877 1.39685 59.324 1.6994 60.1137 1.70948C100.051 1.83048 140.191 1.95141 180.29 2.143Z" fill="#070625"/>
</svg>
